<svg xmlns="http://www.w3.org/2000/svg" version="1.1" xmlns:xlink="http://www.w3.org/1999/xlink" xmlns:svgjs="http://svgjs.dev/svgjs" width="2000" height="1247" viewBox="0 0 2000 1247"><g transform="matrix(1,0,0,1,-1.2121212121212466,0.504858299595071)"><svg viewBox="0 0 396 247" data-background-color="#0a192f" preserveAspectRatio="xMidYMid meet" height="1247" width="2000" xmlns="http://www.w3.org/2000/svg" xmlns:xlink="http://www.w3.org/1999/xlink"><g id="tight-bounds" transform="matrix(1,0,0,1,0.2400000000000091,-0.09999999999999432)"><svg viewBox="0 0 395.52 247.2" height="247.2" width="395.52"><g><svg></svg></g><g><svg viewBox="0 0 395.52 247.2" height="247.2" width="395.52"><mask id="d8e3ef1a-10bc-4c16-a3e3-072044c890cd"><rect width="395.52" height="247.2" fill="white"></rect><g transform="matrix(1,0,0,1,112.66545765194044,37.08)" id="clone"><svg viewBox="0 0 170.1890846961191 173.04" height="173.04" width="170.1890846961191"><g><svg viewBox="0 0 170.1890846961191 173.04" height="173.04" width="170.1890846961191"><g><svg viewBox="0 0 170.1890846961191 173.04" height="173.04" width="170.1890846961191"><g><svg viewBox="0 0 170.1890846961191 173.04" height="173.04" width="170.1890846961191"><g id="SvgjsG1211"><svg viewBox="0 0 170.1890846961191 173.04" height="173.04" width="170.1890846961191" id="SvgjsSvg1210"><g><svg viewBox="0 0 170.1890846961191 173.04" height="173.04" width="170.1890846961191"><g transform="matrix(1,0,0,1,0,0)"><svg width="170.1890846961191" viewBox="-2.02 -38.01 40.35 41.01" height="173.04" data-palette-color="#64ffda"><path d="M35.33-35.01L35.33-28.66 21.34-28.66 21.34 0 14.99 0 14.99-28.66 0.98-28.66 0.98-35.01 35.33-35.01Z" opacity="1" transform="matrix(1,0,0,1,0,0)" fill="black" class="wordmark-text-0" id="SvgjsPath1209" stroke-width="5" stroke="black" stroke-linejoin="round"></path></svg></g></svg></g></svg></g></svg></g><g></g></svg></g></svg></g></svg></g></mask><g mask="url(#d8e3ef1a-10bc-4c16-a3e3-072044c890cd)"><g><path d="M282.51 37.222v31.334h-69.034v141.422h-31.334v-141.422h-69.132v-31.334z" fill="#a3c0c4" fill-rule="nonzero" stroke="none" stroke-width="1" stroke-linecap="butt" stroke-linejoin="miter" stroke-miterlimit="10" stroke-dasharray="" stroke-dashoffset="0" font-family="none" font-weight="none" font-size="none" text-anchor="none" style="mix-blend-mode: normal" data-fill-palette-color="tertiary"></path></g></g><g transform="matrix(1,0,0,1,112.66545765194044,37.08)"><svg viewBox="0 0 170.1890846961191 173.04" height="173.04" width="170.1890846961191"><g><svg viewBox="0 0 170.1890846961191 173.04" height="173.04" width="170.1890846961191"><g><svg viewBox="0 0 170.1890846961191 173.04" height="173.04" width="170.1890846961191"><g><svg viewBox="0 0 170.1890846961191 173.04" height="173.04" width="170.1890846961191"><g id="textblocktransform"><svg viewBox="0 0 170.1890846961191 173.04" height="173.04" width="170.1890846961191" id="textblock"><g><svg viewBox="0 0 170.1890846961191 173.04" height="173.04" width="170.1890846961191"><g transform="matrix(1,0,0,1,0,0)"><svg width="170.1890846961191" viewBox="-2.02 -38.01 40.35 41.01" height="173.04" data-palette-color="#64ffda"><path d="M35.33-35.01L35.33-28.66 21.34-28.66 21.34 0 14.99 0 14.99-28.66 0.98-28.66 0.98-35.01 35.33-35.01Z" opacity="1" transform="matrix(1,0,0,1,0,0)" fill="#64ffda" class="wordmark-text-0" data-fill-palette-color="primary" id="text-0"></path></svg></g></svg></g></svg></g></svg></g><g></g></svg></g></svg></g></svg></g></svg></g><defs></defs></svg><rect width="395.52" height="247.2" fill="none" stroke="none" visibility="hidden"></rect></g></svg></g></svg>